<svg data-name="Favorite_Playlist" id="Favorite__Playlist" viewBox="0 0 512 512" xmlns="http://www.w3.org/2000/svg"><rect height="16" width="40" x="229.4248" y="166.8259"/><rect height="16" width="40" x="170.4248" y="166.8259"/><rect height="16" width="40" x="288.4248" y="166.8259"/><rect height="16" width="40" x="170.4248" y="323.947"/><rect height="16" width="40" x="229.4248" y="323.947"/><path d="M288.1494,246.4811l-48.875-28.5859a8,8,0,0,0-12.039,6.9053v57.1718a8,8,0,0,0,12.039,6.9053l48.875-28.5859a8,8,0,0,0,0-13.8106Z"/><path d="M427.0918,301.4518l-.001-.0009a43.1172,43.1172,0,0,0-29.1465-12.62V134.22a8,8,0,0,0-8-8H367.8906V104.1677a8,8,0,0,0-8-8H81.3711a8,8,0,0,0-8,8v238.331a8,8,0,0,0,8,8h22.0537v22.0537a8,8,0,0,0,8,8H323.58l37.1553,37.1553a8.0465,8.0465,0,0,0,11.3515,0l49.9-49.9q.2284-.23.4356-.4717l4.6689-4.67A43.3351,43.3351,0,0,0,427.0918,301.4518ZM119.4248,339.947h32v-16h-32V182.8259h32v-16h-32V142.22h262.52v24.6055H347.4248v16h34.5195V291.3043a42.9939,42.9939,0,0,0-15.5332,9.6212,43.2859,43.2859,0,0,0-60.6806,61.7412l1.8862,1.8857H119.4248Z"/></svg>